PathFileType	4	(X/Y/Z)	./resultDataOpenSim/trcMotMarkerGrf/sub09/qtm-14-04.trc
DataRate	CameraRate	NumFrames	NumMarkers	Units	OrigDataRate	OrigDataStartFrame	OrigNumFrames
250.000000	250.000000	10	24	m	250.000000	60	479
Frame#	Time	L.Toe.Tip			R.Toe.Tip			L.Ankle.Lat			R.Ankle.Lat			L.Ankle.Med			R.Ankle.Med			L.Heel			R.Heel			L.Knee.Lat			R.Knee.Lat			L.Knee.Med			R.Knee.Med			L.Thigh.Upper			R.Thigh.Upper			L.ASIS			R.ASIS			V.Sacral			L.Acromium			R.Acromium			C7			L.Elbow			R.Elbow			L.Wrist.Lat			R.Wrist.Lat
		X1	Y1	Z1	X2	Y2	Z2	X3	Y3	Z3	X4	Y4	Z4	X5	Y5	Z5	X6	Y6	Z6	X7	Y7	Z7	X8	Y8	Z8	X9	Y9	Z9	X10	Y10	Z10	X11	Y11	Z11	X12	Y12	Z12	X13	Y13	Z13	X14	Y14	Z14	X15	Y15	Z15	X16	Y16	Z16	X17	Y17	Z17	X18	Y18	Z18	X19	Y19	Z19	X20	Y20	Z20	X21	Y21	Z21	X22	Y22	Z22	X23	Y23	Z23	X24	Y24	Z24

60	0.236	-1.4860347	0.083728949	-0.059130646	-0.674773	0.039977869	0.10073515	-1.4935655	0.24305178	-0.10191312	-0.82042692	0.054061981	0.13909302	-1.4686019	0.2266322	-0.0083390371	-0.81656965	0.090157273	0.04585005	-1.5514935	0.2913979	-0.053504215	-0.89065246	0.030342868	0.092805296	-1.1216181	0.4276708	-0.12392862	-0.79358779	0.50971317	0.18085376	-1.1062289	0.41188006	-0.00089006119	-0.81117323	0.49355194	0.055377679	-1.051284	0.82911482	-0.13091653	-0.99998125	0.85600185	0.23831803	-0.95030593	0.91197883	-0.084544498	-0.93009157	0.93969804	0.15454707	-1.1063661	0.98298001	0.047260221	-0.92578286	1.377732	-0.118166	-0.96355994	1.3827348	0.21031559	-1.0121997	1.4343127	0.046439263	-1.0497815	1.0209773	-0.19450561	-1.0995732	1.0450325	0.27665141	-0.82035079	0.87550314	-0.16096506	-0.98616679	0.80095619	0.32007773
61	0.24	-1.4739132	0.086606114	-0.060174166	-0.67465071	0.039880848	0.10053299	-1.4814761	0.24620564	-0.10118943	-0.82015687	0.053894135	0.13888772	-1.4562062	0.22911295	-0.0078960077	-0.81630374	0.090106161	0.045707965	-1.5395301	0.29420584	-0.052376138	-0.89064664	0.030462145	0.092640702	-1.1084825	0.42725998	-0.12317931	-0.78893843	0.50948983	0.18073288	-1.093198	0.41174163	0.00011470607	-0.80788704	0.49343586	0.055120872	-1.0439933	0.82955212	-0.13100818	-0.99288719	0.85716353	0.23884302	-0.94405866	0.91302253	-0.084206946	-0.92356377	0.94074758	0.15501718	-1.1006536	0.98403092	0.046876168	-0.91939827	1.3787281	-0.11794933	-0.95681969	1.383879	0.21054153	-1.0056639	1.4357302	0.046919918	-1.0439183	1.0220705	-0.19381147	-1.0923221	1.0459832	0.27759018	-0.81613195	0.87405906	-0.16093227	-0.97803132	0.80216721	0.32018603
62	0.244	-1.4612038	0.089304891	-0.061123474	-0.67452828	0.03979942	0.10035345	-1.4691197	0.24904099	-0.10043579	-0.81991573	0.053756029	0.13859092	-1.4434826	0.23134518	-0.0073953657	-0.81601461	0.090053179	0.045575534	-1.5272937	0.2966627	-0.051243769	-0.89064361	0.030595903	0.092460328	-1.0952873	0.42708114	-0.12239491	-0.78468825	0.50926128	0.18055503	-1.0805559	0.41175334	0.0010954506	-0.80472341	0.49324092	0.05487615	-1.0366713	0.83011888	-0.13142645	-0.98690288	0.85834105	0.23915688	-0.93791631	0.91415713	-0.083911973	-0.91689259	0.94191912	0.15542558	-1.0953352	0.98518022	0.045711619	-0.91301323	1.3797943	-0.11775105	-0.95012028	1.3850906	0.21075115	-0.99917487	1.4371179	0.047369793	-1.0380965	1.023196	-0.19311812	-1.0851072	1.0469923	0.27855886	-0.81199357	0.87269268	-0.16095372	-0.9698368	0.80348677	0.32024853
63	0.248	-1.4480094	0.091775545	-0.06194582	-0.67443218	0.039734913	0.10019104	-1.4565152	0.25152704	-0.099652646	-0.81979009	0.053683332	0.13827534	-1.430655	0.23333625	-0.0067769471	-0.81574805	0.090003253	0.045455904	-1.5147754	0.29878566	-0.050128998	-0.89060759	0.030554912	0.092588334	-1.082045	0.42713349	-0.1215643	-0.78082123	0.5090452	0.18032456	-1.0683944	0.41189282	0.0020733335	-0.8016731	0.49298906	0.054692175	-1.0294263	0.83083368	-0.13186546	-0.98228236	0.85949828	0.23921663	-0.9318568	0.91538864	-0.083636109	-0.91011778	0.9432027	0.15578131	-1.0902871	0.9864462	0.043951933	-0.90679772	1.3809482	-0.11761506	-0.94345583	1.3863735	0.21094117	-0.9927596	1.4385144	0.047773269	-1.0321873	1.0244188	-0.19228238	-1.0779818	1.0480671	0.27949123	-0.80796565	0.87140959	-0.16103864	-0.96154826	0.80492602	0.32028347
64	0.252	-1.4344126	0.093982733	-0.062634225	-0.67437466	0.03969001	0.10004539	-1.4436658	0.25368012	-0.098852352	-0.81985035	0.053688027	0.13808299	-1.4178945	0.23508889	-0.00604553	-0.81553931	0.089958113	0.045348609	-1.5020022	0.30059118	-0.049056658	-0.89046128	0.030020388	0.093568932	-1.0688085	0.42738795	-0.12067168	-0.77720835	0.50884057	0.18010084	-1.0561556	0.41213369	0.003065788	-0.79875569	0.49270366	0.054641105	-1.0223426	0.83170169	-0.1320627	-0.97847101	0.86067853	0.23911702	-0.92582573	0.91671531	-0.083357831	-0.9033379	0.94457812	0.15608576	-1.0851265	0.98784395	0.042355779	-0.9008434	1.3821932	-0.1175578	-0.93681342	1.3877237	0.21110836	-0.98649611	1.4399175	0.048020865	-1.0260856	1.0258018	-0.19119417	-1.0709709	1.0492155	0.28034543	-0.80404807	0.87021435	-0.16117521	-0.95315808	0.80648385	0.32030362
65	0.256	-1.4204627	0.095915685	-0.063193894	-0.6743579	0.039668846	0.099915595	-1.4305752	0.25552317	-0.098050914	-0.82009745	0.053754769	0.13817789	-1.4051101	0.23660166	-0.0052619473	-0.81541527	0.089918015	0.045245957	-1.4890731	0.30208704	-0.048029334	-0.89017766	0.028876611	0.095600193	-1.0556341	0.42781826	-0.11972157	-0.77376707	0.50862918	0.17994152	-1.0429482	0.41246934	0.0040761042	-0.79602931	0.49240987	0.05481319	-1.0154107	0.8327137	-0.13203056	-0.9743834	0.86197958	0.23904579	-0.91974875	0.91813818	-0.08306796	-0.89673311	0.94602346	0.15633269	-1.0795028	0.98937856	0.041748121	-0.89506991	1.3835221	-0.11754714	-0.93019246	1.3891352	0.21125387	-0.98048355	1.4412857	0.047957802	-1.0198872	1.0273482	-0.18992735	-1.0640612	1.0504393	0.28113445	-0.80022397	0.86911596	-0.16134519	-0.94471657	0.80814762	0.32030665
66	0.26	-1.4061845	0.097574997	-0.06362422	-0.67437915	0.039672179	0.099799129	-1.4172641	0.25706347	-0.097252342	-0.82037742	0.053822862	0.13858235	-1.3921114	0.23785591	-0.0044622019	-0.81539632	0.089884337	0.045134376	-1.4760951	0.3032677	-0.047025472	-0.88992383	0.027735285	0.097627648	-1.0425341	0.42841624	-0.11873881	-0.77048326	0.50840242	0.17986893	-1.0287763	0.41291202	0.0051320581	-0.79352644	0.49213496	0.055209479	-1.0085792	0.83385738	-0.13192773	-0.96925138	0.86346817	0.23913731	-0.91357041	0.91965724	-0.08277111	-0.89051382	0.94751476	0.15651243	-1.0733939	0.99104268	0.042432004	-0.88935012	1.3849363	-0.11754173	-0.92360458	1.3906041	0.2113828	-0.97471871	1.4426023	0.047571402	-1.013785	1.0290209	-0.18858738	-1.0572242	1.051733	0.28189626	-0.79647957	0.86813218	-0.16153862	-0.93627979	0.80990789	0.32028494
67	0.264	-1.391587	0.098965554	-0.063926073	-0.67443234	0.039686289	0.099697998	-1.4037756	0.25829636	-0.096443645	-0.82046106	0.053827025	0.13908859	-1.3789008	0.23880785	-0.003615407	-0.81547984	0.089858982	0.045008757	-1.4630969	0.30412156	-0.046034229	-0.88997215	0.02761795	0.097882663	-1.0294824	0.42918451	-0.11774403	-0.76736959	0.50816922	0.17986477	-1.0146179	0.41347215	0.0062812658	-0.79116733	0.49190364	0.055655647	-1.00182	0.83512242	-0.13186199	-0.96313574	0.86512541	0.23938512	-0.90730536	0.92126424	-0.082473514	-0.88472783	0.94903436	0.15662922	-1.0670183	0.99280389	0.044043823	-0.8836259	1.3864442	-0.11752391	-0.91705857	1.3921314	0.21150064	-0.96903012	1.4439205	0.047095416	-1.0078525	1.0307861	-0.18717337	-1.0504385	1.0530888	0.28265636	-0.79281289	0.86727953	-0.16175416	-0.92787562	0.81175982	0.32023532
68	0.268	-1.3766613	0.10010476	-0.064104368	-0.67450731	0.039686716	0.099619353	-1.3901546	0.2592193	-0.095615897	-0.82030887	0.053791568	0.13945151	-1.365702	0.23942451	-0.0026390491	-0.81562685	0.089841663	0.044884814	-1.4500377	0.30464224	-0.045081524	-0.89035092	0.028677516	0.096088155	-1.0164543	0.43011964	-0.11673754	-0.76443096	0.50793931	0.17988402	-1.0011689	0.41416132	0.0075238633	-0.78880377	0.49172782	0.055942199	-0.9951262	0.83649934	-0.13183908	-0.95657055	0.86687789	0.23970438	-0.90104652	0.92294901	-0.082174569	-0.87913917	0.95058203	0.15671737	-1.0606052	0.99459588	0.045775183	-0.87790879	1.3880456	-0.11749816	-0.91055746	1.3937203	0.21161148	-0.96322438	1.4453208	0.046813004	-1.0020644	1.0326018	-0.18575348	-1.043697	1.0545041	0.28342255	-0.78923922	0.86655129	-0.16199379	-0.91951077	0.81369755	0.32016106
69	0.272	-1.3613759	0.10102099	-0.06415025	-0.67458976	0.039665561	0.099565384	-1.3764294	0.2598382	-0.094775725	-0.82010598	0.053807559	0.13960909	-1.3527435	0.2397287	-0.001453048	-0.81578337	0.08983084	0.04478597	-1.4368789	0.30482956	-0.044194374	-0.8907864	0.029971607	0.093869612	-1.0034453	0.43120771	-0.1157159	-0.76165329	0.50771097	0.17988388	-0.98831122	0.41501764	0.0087934375	-0.7863311	0.49160188	0.056010237	-0.9884721	0.83798141	-0.13178516	-0.94999135	0.86865786	0.24002559	-0.89488672	0.92470936	-0.08187057	-0.87344451	0.95216508	0.15681799	-1.05428	0.9963629	0.046937072	-0.87222808	1.3897243	-0.11747673	-0.90410211	1.3953687	0.21171808	-0.957261	1.4468375	0.046801915	-0.99640571	1.0344255	-0.18450737	-1.037004	1.0559792	0.28419599	-0.7857917	0.86591652	-0.16226113	-0.91118383	0.81571705	0.32006985
